<svg xmlns="http://www.w3.org/2000/svg" xmlns:xlink="http://www.w3.org/1999/xlink" width="100" zoomAndPan="magnify" viewBox="0 0 75 30.000001" height="40" preserveAspectRatio="xMidYMid meet" version="1.0"><defs><clipPath id="id1"><path d="M 15.769531 1.96875 L 54.964844 1.96875 L 54.964844 28.097656 L 15.769531 28.097656 Z M 15.769531 1.96875 " clip-rule="nonzero"/></clipPath><clipPath id="id2"><path d="M 24 5 L 47 5 L 47 28.097656 L 24 28.097656 Z M 24 5 " clip-rule="nonzero"/></clipPath><clipPath id="id3"><path d="M 17 1.96875 L 54 1.96875 L 54 28.097656 L 17 28.097656 Z M 17 1.96875 " clip-rule="nonzero"/></clipPath></defs><g clip-path="url(#id1)"><path fill="#02827a" d="M 54.960938 15.5625 L 54.960938 28.097656 L 15.769531 28.097656 L 15.769531 15.5625 L 24.132812 15.5625 L 24.132812 11.257812 L 22.183594 11.257812 L 35.367188 1.972656 L 48.550781 11.257812 L 46.601562 11.257812 L 46.601562 15.5625 Z M 54.960938 15.5625 " fill-opacity="1" fill-rule="nonzero"/></g><g clip-path="url(#id2)"><path fill="#c23527" d="M 24.132812 15.5625 L 46.601562 15.5625 L 46.601562 16.242188 L 24.132812 16.242188 Z M 24.132812 28.097656 L 46.601562 28.097656 L 46.601562 17.097656 L 24.132812 17.097656 Z M 24.132812 11.21875 L 24.132812 13.394531 L 46.601562 13.394531 L 46.601562 11.21875 Z M 33.28125 7.476562 C 33.28125 6.320312 34.214844 5.382812 35.367188 5.382812 C 36.519531 5.382812 37.453125 6.320312 37.453125 7.476562 C 37.453125 8.632812 36.519531 9.570312 35.367188 9.570312 C 34.214844 9.570312 33.28125 8.632812 33.28125 7.476562 Z M 34.027344 7.476562 C 34.027344 8.21875 34.628906 8.820312 35.367188 8.820312 C 36.105469 8.820312 36.707031 8.21875 36.707031 7.476562 C 36.707031 6.730469 36.105469 6.128906 35.367188 6.128906 C 34.628906 6.128906 34.027344 6.730469 34.027344 7.476562 Z M 34.027344 7.476562 " fill-opacity="1" fill-rule="nonzero"/></g><g clip-path="url(#id3)"><path fill="#ffde59" d="M 17.246094 19.199219 L 19.375 19.199219 L 19.375 23.476562 L 17.246094 23.476562 Z M 20.792969 23.476562 L 22.921875 23.476562 L 22.921875 19.199219 L 20.792969 19.199219 Z M 47.8125 23.476562 L 49.941406 23.476562 L 49.941406 19.199219 L 47.8125 19.199219 Z M 51.355469 19.199219 L 51.355469 23.476562 L 53.488281 23.476562 L 53.488281 19.199219 Z M 35.367188 20.503906 C 34.214844 20.503906 33.28125 21.441406 33.28125 22.597656 L 33.28125 28.097656 L 37.453125 28.097656 L 37.453125 22.597656 C 37.453125 21.441406 36.519531 20.503906 35.367188 20.503906 Z M 35.367188 6.128906 C 34.628906 6.128906 34.027344 6.730469 34.027344 7.476562 C 34.027344 8.21875 34.628906 8.820312 35.367188 8.820312 C 36.105469 8.820312 36.707031 8.21875 36.707031 7.476562 C 36.707031 6.730469 36.105469 6.128906 35.367188 6.128906 Z M 45.1875 12.535156 L 45.1875 26.816406 L 45.363281 26.816406 C 45.714844 26.816406 46 27.101562 46 27.457031 C 46 27.8125 45.714844 28.097656 45.363281 28.097656 L 43.132812 28.097656 C 42.78125 28.097656 42.496094 27.8125 42.496094 27.457031 C 42.496094 27.101562 42.78125 26.816406 43.132812 26.816406 L 43.191406 26.816406 L 43.191406 12.535156 L 43.132812 12.535156 C 42.78125 12.535156 42.496094 12.25 42.496094 11.894531 C 42.496094 11.542969 42.78125 11.253906 43.132812 11.253906 L 40.921875 11.253906 C 41.273438 11.253906 41.558594 11.542969 41.558594 11.894531 C 41.558594 12.25 41.273438 12.535156 40.921875 12.535156 L 40.746094 12.535156 L 40.746094 26.816406 L 40.921875 26.816406 C 41.273438 26.816406 41.558594 27.101562 41.558594 27.457031 C 41.558594 27.8125 41.273438 28.097656 40.921875 28.097656 L 38.691406 28.097656 C 38.339844 28.097656 38.054688 27.8125 38.054688 27.457031 C 38.054688 27.101562 38.339844 26.816406 38.691406 26.816406 L 38.75 26.816406 L 38.75 12.535156 L 38.691406 12.535156 C 38.339844 12.535156 38.054688 12.25 38.054688 11.894531 C 38.054688 11.542969 38.339844 11.253906 38.691406 11.253906 L 32.042969 11.253906 C 32.394531 11.253906 32.679688 11.542969 32.679688 11.894531 C 32.679688 12.25 32.394531 12.535156 32.042969 12.535156 L 31.867188 12.535156 L 31.867188 26.816406 L 32.042969 26.816406 C 32.394531 26.816406 32.679688 27.101562 32.679688 27.457031 C 32.679688 27.8125 32.394531 28.097656 32.042969 28.097656 L 29.8125 28.097656 C 29.460938 28.097656 29.175781 27.8125 29.175781 27.457031 C 29.175781 27.101562 29.460938 26.816406 29.8125 26.816406 L 29.871094 26.816406 L 29.871094 12.535156 L 29.8125 12.535156 C 29.460938 12.535156 29.175781 12.25 29.175781 11.894531 C 29.175781 11.542969 29.460938 11.253906 29.8125 11.253906 L 27.601562 11.253906 C 27.953125 11.253906 28.238281 11.542969 28.238281 11.894531 C 28.238281 12.25 27.953125 12.535156 27.601562 12.535156 L 27.425781 12.535156 L 27.425781 26.816406 L 27.601562 26.816406 C 27.953125 26.816406 28.238281 27.101562 28.238281 27.457031 C 28.238281 27.8125 27.953125 28.097656 27.601562 28.097656 L 25.371094 28.097656 C 25.019531 28.097656 24.734375 27.8125 24.734375 27.457031 C 24.734375 27.101562 25.019531 26.816406 25.371094 26.816406 L 25.429688 26.816406 L 25.429688 12.535156 L 25.371094 12.535156 C 25.019531 12.535156 24.734375 12.25 24.734375 11.894531 C 24.734375 11.542969 25.019531 11.253906 25.371094 11.253906 L 22.183594 11.253906 L 35.367188 1.972656 L 48.550781 11.257812 L 45.363281 11.257812 C 45.714844 11.257812 46 11.542969 46 11.898438 C 46 12.25 45.714844 12.539062 45.363281 12.539062 L 45.1875 12.539062 Z M 37.453125 7.476562 C 37.453125 6.320312 36.519531 5.382812 35.367188 5.382812 C 34.214844 5.382812 33.28125 6.320312 33.28125 7.476562 C 33.28125 8.632812 34.214844 9.570312 35.367188 9.570312 C 36.519531 9.570312 37.453125 8.632812 37.453125 7.476562 Z M 37.453125 7.476562 " fill-opacity="1" fill-rule="nonzero"/></g><path fill="#ffffff" d="M 35.367188 3.679688 L 25.816406 10.40625 L 44.917969 10.40625 Z M 35.367188 9.570312 C 34.214844 9.570312 33.28125 8.632812 33.28125 7.476562 C 33.28125 6.320312 34.214844 5.382812 35.367188 5.382812 C 36.519531 5.382812 37.453125 6.320312 37.453125 7.476562 C 37.453125 8.632812 36.519531 9.570312 35.367188 9.570312 Z M 35.367188 9.570312 " fill-opacity="1" fill-rule="nonzero"/></svg>